<?xml version="1.0" encoding="UTF-8"?>
<svg fill="currentColor" id="Warstwa_1" data-name="Warstwa 1" xmlns="http://www.w3.org/2000/svg" viewBox="0 0 24 20"  >
  <g>
    <path
      d="M21.5,20h-3c-.28,0-.5-.22-.5-.5s.22-.5,.5-.5h3c.83,0,1.5-.67,1.5-1.5V2.5c0-.83-.67-1.5-1.5-1.5h-3c-.28,0-.5-.22-.5-.5s.22-.5,.5-.5h3c1.38,0,2.5,1.12,2.5,2.5v15c0,1.38-1.12,2.5-2.5,2.5Z" />
    <path
      d="M17.49,2c-.56,0-.8-.49-.95-.78-.02-.03-.04-.07-.06-.11-.02,.04-.04,.08-.06,.11-.15,.29-.39,.78-.95,.78s-.8-.49-.95-.78c-.02-.03-.03-.07-.05-.1-.02,.04-.04,.07-.05,.1-.14,.29-.39,.78-.94,.78s-.8-.49-.95-.78c-.02-.03-.03-.07-.05-.1-.02,.04-.04,.07-.05,.1-.15,.29-.39,.78-.95,.78s-.8-.49-.95-.78c-.02-.03-.03-.07-.05-.1-.02,.04-.04,.07-.05,.1-.14,.29-.39,.78-.95,.78s-.8-.49-.95-.78c-.02-.03-.03-.07-.05-.1-.02,.03-.04,.07-.05,.1-.15,.29-.39,.78-.95,.78s-.8-.49-.94-.78c-.04-.07-.09-.17-.12-.23-.24-.03-.43-.24-.43-.49,0-.28,.22-.5,.5-.5,.56,0,.8,.49,.95,.78,.02,.03,.03,.07,.05,.1,.01-.04,.03-.07,.05-.1C7.69,.49,7.94,0,8.49,0s.8,.49,.95,.78c.02,.03,.03,.07,.05,.1,.02-.04,.04-.07,.05-.1C9.69,.49,9.93,0,10.49,0s.8,.49,.95,.78c.02,.03,.03,.07,.05,.1,.02-.04,.04-.07,.05-.1C11.69,.49,11.93,0,12.49,0s.8,.49,.95,.78c.02,.03,.03,.07,.05,.1,.02-.04,.04-.07,.05-.1C13.68,.49,13.93,0,14.48,0s.8,.49,.95,.78c.02,.03,.03,.07,.05,.11,.02-.04,.04-.07,.05-.11C15.69,.49,15.93,0,16.49,0s.8,.49,.95,.78c.02,.03,.04,.07,.06,.11,.02-.04,.04-.08,.06-.11C17.7,.49,17.94,0,18.5,0c.28,0,.5,.22,.5,.5s-.22,.5-.5,.5c.06,0-.01,.14-.06,.22-.15,.29-.39,.78-.95,.78Z" />
    <path
      d="M6.5,20H2.5c-1.38,0-2.5-1.12-2.5-2.5V2.5C0,1.12,1.12,0,2.5,0H6.5c.28,0,.5,.22,.5,.5s-.22,.5-.5,.5H2.5c-.83,0-1.5,.67-1.5,1.5v15c0,.83,.67,1.5,1.5,1.5H6.5c.28,0,.5,.22,.5,.5s-.22,.5-.5,.5Z" />
    <path
      d="M18.5,20c-.56,0-.8-.49-.94-.78-.02-.03-.03-.07-.05-.1-.01,.03-.03,.07-.05,.1-.15,.29-.39,.78-.95,.78s-.8-.49-.94-.78c-.02-.03-.03-.07-.05-.1-.02,.03-.03,.07-.05,.1-.15,.29-.39,.78-.95,.78s-.8-.49-.95-.78c-.02-.03-.03-.07-.05-.1-.02,.04-.04,.07-.05,.1-.15,.29-.39,.78-.95,.78s-.8-.49-.95-.78c-.02-.03-.03-.07-.05-.1-.02,.03-.04,.07-.05,.1-.15,.29-.39,.78-.94,.78s-.8-.49-.95-.78c-.02-.03-.03-.07-.05-.1-.02,.04-.04,.07-.05,.11-.15,.29-.39,.77-.95,.77s-.8-.49-.95-.77c-.02-.03-.04-.07-.06-.11-.02,.04-.04,.08-.06,.11-.15,.29-.39,.78-.95,.78-.28,0-.5-.22-.5-.5s.22-.5,.5-.5c-.06,0,.01-.14,.06-.23,.15-.29,.39-.77,.95-.77s.8,.49,.95,.77c.02,.03,.04,.07,.06,.11,.02-.04,.04-.08,.06-.11,.15-.29,.39-.78,.95-.78s.8,.49,.95,.77c.02,.03,.03,.07,.05,.1,.02-.03,.04-.07,.05-.1,.14-.29,.39-.78,.94-.78s.8,.49,.95,.78c.02,.03,.03,.07,.05,.1,.02-.04,.04-.07,.05-.1,.15-.29,.39-.78,.95-.78s.8,.49,.95,.78c.02,.03,.03,.07,.05,.1,.02-.03,.04-.07,.05-.1,.14-.29,.39-.78,.94-.78s.8,.49,.95,.78c.02,.03,.03,.07,.05,.1,.01-.03,.03-.07,.05-.1,.15-.29,.39-.78,.95-.78s.8,.49,.94,.78c.04,.07,.09,.17,.12,.23,.24,.04,.42,.24,.42,.49,0,.28-.22,.5-.5,.5Z" />
    <path d="M6,5H2.5c-.28,0-.5-.22-.5-.5s.22-.5,.5-.5h3.5c.28,0,.5,.22,.5,.5s-.22,.5-.5,.5Z" />
    <path d="M6,7H2.5c-.28,0-.5-.22-.5-.5s.22-.5,.5-.5h3.5c.28,0,.5,.22,.5,.5s-.22,.5-.5,.5Z" />
    <path d="M6,9H2.5c-.28,0-.5-.22-.5-.5s.22-.5,.5-.5h3.5c.28,0,.5,.22,.5,.5s-.22,.5-.5,.5Z" />
    <path d="M6,14H2.5c-.28,0-.5-.22-.5-.5s.22-.5,.5-.5h3.5c.28,0,.5,.22,.5,.5s-.22,.5-.5,.5Z" />
    <path d="M6,16H2.5c-.28,0-.5-.22-.5-.5s.22-.5,.5-.5h3.5c.28,0,.5,.22,.5,.5s-.22,.5-.5,.5Z" />
    <path d="M6.5,20c-.28,0-.5-.22-.5-.5V.5c0-.28,.22-.5,.5-.5s.5,.22,.5,.5V19.5c0,.28-.22,.5-.5,.5Z" />
    <path d="M9.5,19c-.28,0-.5-.22-.5-.5V1.5c0-.28,.22-.5,.5-.5s.5,.22,.5,.5V18.5c0,.28-.22,.5-.5,.5Z" />
    <path d="M12.5,20c-.28,0-.5-.22-.5-.5V.5c0-.28,.22-.5,.5-.5s.5,.22,.5,.5V19.5c0,.28-.22,.5-.5,.5Z" />
    <path d="M15.5,19c-.28,0-.5-.22-.5-.5V1.5c0-.28,.22-.5,.5-.5s.5,.22,.5,.5V18.5c0,.28-.22,.5-.5,.5Z" />
    <path d="M18.5,20c-.28,0-.5-.22-.5-.5V.5c0-.28,.22-.5,.5-.5s.5,.22,.5,.5V19.5c0,.28-.22,.5-.5,.5Z" />
  </g>
  <path
    d="M21.5,4c-.13,0-.26-.05-.35-.14-.1-.1-.15-.23-.15-.36s.05-.26,.15-.35c.19-.19,.52-.19,.7,0,.1,.09,.15,.22,.15,.35s-.05,.25-.14,.35c-.1,.1-.23,.15-.36,.15Z" />
  <path
    d="M20.5,6c-.13,0-.26-.05-.35-.14-.1-.1-.15-.23-.15-.36s.05-.26,.15-.35c.19-.19,.52-.19,.7,0,.1,.09,.15,.22,.15,.35s-.05,.26-.15,.35c-.09,.1-.22,.15-.35,.15Z" />
  <path
    d="M21.5,8c-.13,0-.26-.05-.35-.14-.1-.1-.15-.23-.15-.36s.05-.26,.15-.35c.19-.19,.52-.19,.7,0,.1,.09,.15,.22,.15,.35s-.05,.25-.14,.35c-.1,.1-.23,.15-.36,.15Z" />
  <path
    d="M20.5,10c-.13,0-.26-.05-.35-.14-.1-.1-.15-.23-.15-.36s.05-.26,.14-.35c.21-.2,.53-.19,.71,0,.1,.1,.15,.22,.15,.35s-.05,.26-.15,.35c-.09,.1-.22,.15-.35,.15Z" />
  <path
    d="M21.5,12c-.13,0-.26-.05-.35-.14-.1-.1-.15-.23-.15-.36s.05-.26,.15-.35c.19-.19,.52-.19,.7,0,.1,.09,.15,.22,.15,.35s-.05,.25-.14,.35c-.1,.1-.23,.15-.36,.15Z" />
  <path
    d="M20.5,14c-.13,0-.26-.05-.35-.14-.1-.1-.15-.23-.15-.36s.05-.26,.14-.35c.21-.2,.53-.19,.71,0,.1,.1,.15,.22,.15,.35s-.05,.25-.14,.35c-.1,.1-.23,.15-.36,.15Z" />
  <path
    d="M21.5,16c-.13,0-.25-.05-.35-.14-.1-.11-.15-.23-.15-.36s.05-.26,.15-.35c.19-.19,.52-.19,.7,0,.1,.09,.15,.22,.15,.35s-.05,.25-.14,.35c-.1,.1-.23,.15-.36,.15Z" />
  <path
    d="M20.5,18c-.13,0-.26-.05-.35-.14-.1-.1-.15-.23-.15-.36s.05-.26,.15-.35c.19-.19,.52-.19,.7,0,.1,.09,.15,.22,.15,.35s-.05,.25-.14,.35c-.1,.1-.23,.15-.36,.15Z" />
</svg>