<?xml version="1.0" encoding="UTF-8"?>
<svg fill="currentColor" id="Warstwa_1" data-name="Warstwa 1" xmlns="http://www.w3.org/2000/svg" viewBox="0 0 352 512.01">
  <path
    d="M96.06,454.35c.01,6.29,1.87,12.45,5.36,17.69l17.09,25.69c5.93,8.92,15.93,14.28,26.64,14.28h61.71c10.71,0,20.71-5.36,26.64-14.28l17.09-25.69c3.49-5.24,5.35-11.39,5.36-17.69l.04-38.35H96.01s.05,38.35,.05,38.35ZM0,176c0,44.37,16.45,84.85,43.56,115.78,16.52,18.85,42.36,58.23,52.21,91.45,.04,.26,.07,.52,.11,.78h160.24c.04-.26,.07-.51,.11-.78,9.85-33.22,35.69-72.6,52.21-91.45,27.11-30.93,43.56-71.41,43.56-115.78C352,78.61,272.91-.3,175.45,0,73.44,.31,0,82.97,0,176ZM176,96c-44.11,0-80,35.89-80,80,0,8.84-7.16,16-16,16s-16-7.16-16-16c0-61.76,50.24-112,112-112,8.84,0,16,7.16,16,16s-7.16,16-16,16Z" />
</svg>