<?xml version="1.0" encoding="UTF-8"?>
<svg fill="#d3bb73" id="Warstwa_1" data-name="Warstwa 1" xmlns="http://www.w3.org/2000/svg" viewBox="0 0 64 64">
  <path
    d="M61,23c-.4,0-.7,.1-1,.2v-2.2c0-1.7-1.3-3-3-3-.4,0-.8,.1-1.1,.2-.4-1.3-1.5-2.2-2.9-2.2-1.7,0-3,1.3-3,3v.2c-.3-.1-.6-.2-1-.2-1.7,0-3,1.3-3,3v7h2v-7c0-.6,.4-1,1-1s1,.4,1,1v14h2V19c0-.6,.4-1,1-1s1,.4,1,1v17h2v-15c0-.6,.4-1,1-1s1,.4,1,1v17h2v-12c0-.6,.4-1,1-1s1,.4,1,1v18.8l-2,6v3.2h-14v10h2v-8h12v8h2v-12.8l2-6V26c0-1.7-1.3-3-3-3Z" />
  <path d="M48,40v-7c0-1.7-1.3-3-3-3s-3,1.3-3,3v9.2l4,8v1.8h2v-2.2l-4-8v-8.8c0-.6,.4-1,1-1s1,.4,1,1v7h2Z" />
  <circle cx="32" cy="32" r="2" />
  <path
    d="M40,32c0-4.4-3.6-8-8-8s-8,3.6-8,8,3.6,8,8,8,8-3.6,8-8Zm-14,0c0-3.3,2.7-6,6-6s6,2.7,6,6-2.7,6-6,6-6-2.7-6-6Z" />
  <path
    d="M32,62c-16.5,0-30-13.5-30-30S15.5,2,32,2c10.1,0,19.5,5.1,25.1,13.5l1.7-1.1C52.8,5.4,42.8,0,32,0,14.4,0,0,14.4,0,32s14.4,32,32,32c3.9,0,7.7-.7,11.4-2.1l-.7-1.9c-3.5,1.3-7,2-10.7,2Z" />
  <path
    d="M8,32c0-7.6,3.5-14.6,9.6-19.2l-1.2-1.6c-6.6,5-10.4,12.5-10.4,20.8,0,14.3,11.7,26,26,26v-2c-13.2,0-24-10.8-24-24Z" />
  <path
    d="M41.4,12.1c-3-1.4-6.1-2.1-9.4-2.1-12.1,0-22,9.9-22,22,0,3.3,.7,6.5,2.1,9.4l1.8-.9c-1.3-2.6-1.9-5.5-1.9-8.5,0-11,9-20,20-20,3,0,5.9,.6,8.6,1.9l.8-1.8Z" />
</svg>