<?xml version="1.0" encoding="UTF-8"?>
<svg id="Warstwa_1" data-name="Warstwa 1" xmlns="http://www.w3.org/2000/svg" viewBox="0 0 24 24">
  <defs>
    <style>
      .cls-1 {
        fill: #d3bb73;
      }
    </style>
  </defs>
  <path class="cls-1" d="M12,24c6.55,0,12-5.44,12-12S18.54,0,11.99,0,0,5.45,0,12s5.44,12,12,12ZM12,22c-5.55,0-9.99-4.45-9.99-10S6.44,2,11.99,2s10,4.46,10.01,10c.01,5.55-4.46,10-10,10ZM11.99,12.65c.2,0,.42-.08.65-.31l5.19-5.19c-.14-.12-.48-.24-.99-.24H7.13c-.49,0-.85.12-.99.24l5.19,5.19c.24.24.46.31.66.31ZM9.66,12.02l-4.09-4.09c-.07.12-.11.4-.11.81v6.52c0,.41.04.71.12.85l4.08-4.08ZM14.27,12.02l4.08,4.08c.08-.14.12-.44.12-.85v-6.52c0-.41-.04-.69-.09-.81l-4.11,4.09ZM11.98,13.58c-.42,0-.75-.15-1.21-.58l-.38-.35-4.22,4.22c.14.13.47.21.96.21h9.69c.49,0,.82-.08.96-.21l-4.22-4.22-.38.35c-.46.42-.79.58-1.21.58Z"/>
</svg>