<?xml version="1.0" encoding="UTF-8"?>
<svg id="Warstwa_1" data-name="Warstwa 1" xmlns="http://www.w3.org/2000/svg" viewBox="0 0 69.95 51.93">
  <path d="M3.94,.17C2.57,.54,1.54,1.29,.82,2.4-.46,4.43-.23,6.96,1.41,8.71c.6,.64,2.04,1.52,2.49,1.52,.15,0,.18,3.51,.18,20.85v20.85h2.19V16.03l1.89,1.86c4.02,3.96,8.29,7.04,12.71,9.17l1.67,.81v6.03l1.07-.04,1.05-.04,.04-2.57c.01-1.41,.05-2.56,.08-2.56s.31,.1,.64,.22c3.36,1.19,8.61,1.8,12.36,1.44,1.96-.19,4.48-.7,6.19-1.23l1.26-.4,.03,2.56,.04,2.54,1.07,.04,1.05,.04v-6.04l1-.45c4.54-2.08,10.32-6.37,14.34-10.66l.92-.97v16.8c.01,13.41-.03,16.76-.15,16.65-.1-.07-5.06-3.77-11.03-8.22l-10.87-8.08h-10.27l-11.65,8.24c-6.4,4.53-11.65,8.27-11.65,8.33-.01,.07,12.51,.11,27.81,.11h27.82v2.32h2.19V31.08c0-17.34,.03-20.85,.18-20.85,.45,0,1.89-.88,2.49-1.52,2.13-2.28,1.8-5.87-.72-7.71-2.64-1.93-6.38-.93-7.79,2.11-.31,.66-.37,.96-.37,2.06s.04,1.39,.38,2.12c.49,1.07,1.46,2.05,2.49,2.54,.45,.22,.9,.4,1,.4,.12,0,.16,.33,.16,1.16v1.15l-1.61,1.75c-3.43,3.71-7.49,7.1-11.17,9.3-1.27,.77-3.25,1.82-3.42,1.82-.04,0-.07-1.56-.07-3.46v-3.47l.55-.44c1.24-1,1.41-2.61,.38-3.79-.57-.66-1.09-.9-1.94-.9-1.45-.01-2.53,.98-2.65,2.42-.08,.92,.34,1.86,1.01,2.3,.26,.16,.46,.33,.46,.37s-.44,.41-.97,.82c-5,3.91-10.4,4.58-15.6,1.97-1.48-.74-3.94-2.47-3.94-2.76,0-.05,.21-.23,.46-.4,1.5-.97,1.3-3.58-.34-4.43-.67-.34-1.83-.37-2.42-.07-.97,.51-1.65,1.79-1.46,2.8,.14,.71,.41,1.16,1.03,1.68l.55,.48v3.36c0,2.47-.04,3.38-.16,3.38-.31,0-3.38-1.7-5.1-2.83-3.77-2.49-7.21-5.48-10.21-8.94l-.79-.9v-1.19c0-.89,.04-1.18,.18-1.18,.11,0,.56-.19,1.01-.41,1.01-.51,1.98-1.52,2.47-2.57,.33-.68,.37-.94,.36-2.08,0-1.04-.07-1.44-.31-1.98C8.92,.84,6.29-.49,3.94,.17ZM27.48,23.03c2.72,1.37,4.73,1.87,7.49,1.89,1.15,0,2.32-.07,2.8-.16,2.17-.48,4.55-1.49,6.47-2.79l.98-.67-.03,2.57-.04,2.56-1.44,.46c-3.21,1.04-6.29,1.48-9.57,1.35-2.98-.11-5.1-.49-8.16-1.48l-1.27-.41v-5.02l.92,.62c.51,.34,1.34,.82,1.85,1.08Z"/>
</svg>