<?xml version="1.0" encoding="UTF-8"?>
<svg fill="#d3bb73" id="Layer_1" data-name="Layer 1" xmlns="http://www.w3.org/2000/svg" viewBox="0 0 512 468.61">
  <path d="M386.54,143.6l62.11-77.64c2.6-3.47,2.6-6.94,.87-10.41L414.81,3.47c-1.74-1.74-4.34-3.47-6.94-3.47h-121.49c-2.6,0-5.21,1.74-7.81,3.47l-34.71,52.07c-1.53,3.05-1.71,6.77,.04,9.4,.53,1.08,1.27,2,2.19,2.72l60.9,76.12c-17.76,4.51-34.71,12.13-50.46,23.03-27.53-18.64-58.81-27.96-91.64-27.96-91.12,0-164.88,73.76-164.88,164.88s73.76,164.88,164.88,164.88c32.42,0,63.32-9.09,90.6-27.96,27.53,18.64,58.81,27.96,91.64,27.96,91.12,0,164.88-73.76,164.88-164.88,0-77.53-53.4-142.48-125.46-160.14Zm-116.8-74.17h21.85l34.71,34.71h-28.71l-27.85-34.71Zm46.15-17.36l31.24-31.24,31.24,31.24h-62.48Zm62.48,17.36l-31.24,31.24-31.24-31.24h62.48Zm24.3,0h21.08l-27.46,34.71h-28.33l34.71-34.71Zm23.54-17.36h-23.54l-34.71-34.71h35.58l22.67,34.71ZM290.71,17.36h35.58l-34.71,34.71h-24.24l23.38-34.71Zm34.71,121.49l-13.92-17.36h71.05l-13.73,17.36h-43.39ZM17.36,303.73c0-81.57,65.95-147.52,147.52-147.52,31.24,0,60.75,9.55,85.91,28.64,2.82,1.95,5.59,4.01,8.29,6.18,2.7,2.17,5.33,4.45,7.88,6.83,2.55,2.39,5.02,4.88,7.39,7.49,1.19,1.3,2.35,2.63,3.49,3.99,1.14,1.36,2.25,2.74,3.33,4.15,20.83,26.03,31.24,57.28,31.24,90.25,0,30.3-9.51,58.88-26.79,84-3.71-2.63-7.27-5.48-10.62-8.59-3.13-2.95-6.06-6.1-8.58-9.46,13.02-19.96,19.96-42.52,19.96-65.95,0-26.03-7.81-50.33-23.43-71.16-.6-.81-1.2-1.62-1.81-2.41-7.32-9.52-15.66-17.61-25.36-24.63-2.43-1.76-4.94-3.44-7.54-5.07-.35-.26-.72-.48-1.1-.67-18.83-11.69-40.12-17.56-62.26-17.56-66.82,0-121.49,54.67-121.49,121.49s54.67,121.49,121.49,121.49c19.73,0,39.45-5.09,56.66-14.43,5.89,6.79,12.36,13.05,19.44,18.92-23.36,13.79-49.3,21.54-76.1,21.54-81.57,0-147.53-65.95-147.53-147.53Zm283.62-93.31c14.38-7.21,30.26-10.82,46.14-10.82,57.27,0,104.14,46.86,104.14,104.14s-46.86,104.14-104.14,104.14c-15.88,0-31.76-3.62-46.14-10.82,18.76-27.65,28.79-59.41,28.79-93.31,0-33.91-10.03-65.66-28.79-93.31Zm-57.99,93.31c0-17.52,4.54-35.05,13.14-50.28,8.44,15.58,12.9,32.93,12.9,50.28s-4.54,35.05-13.14,50.28c-8.44-15.58-12.9-32.93-12.9-50.28Zm-31.96-93.31c-18.76,27.65-28.79,59.41-28.79,93.31s10.03,65.66,28.79,93.31c-14.38,7.21-30.26,10.82-46.15,10.82-57.28,0-104.14-46.86-104.14-104.14s46.86-104.14,104.14-104.14c15.88,0,31.76,3.62,46.15,10.83Zm136.09,240.84c-31.24,0-60.75-9.55-85.91-28.64-9.87-6.83-19.08-15-27.04-24.49-1.14-1.36-2.25-2.74-3.33-4.15-20.83-26.03-31.24-57.27-31.24-90.25,0-30.3,9.51-58.88,26.79-84,1.74,1.23,3.45,2.51,5.12,3.85,4.94,4.24,9.52,8.98,14.09,14.2-13.02,19.96-19.96,42.52-19.96,65.95,0,26.03,7.81,50.33,23.43,71.16,9.55,13.02,20.83,23.43,34.71,32.11,.35,.26,.72,.48,1.1,.67,18.83,11.69,40.12,17.55,62.26,17.55,66.82,0,121.49-54.67,121.49-121.49s-54.67-121.49-121.49-121.49c-19.73,0-39.45,5.09-56.66,14.43-5.89-6.79-12.36-13.05-19.44-18.92,23.36-13.79,49.3-21.54,76.1-21.54,81.57,0,147.52,65.95,147.52,147.52s-65.95,147.53-147.52,147.53Z"/>
</svg>