<?xml version="1.0" encoding="UTF-8"?>
<svg id="Layer_1" data-name="Layer 1" xmlns="http://www.w3.org/2000/svg" viewBox="0 0 24 24">
  <defs>
    <style>
      .cls-1 {
        fill: #d3bb73;
      }
    </style>
  </defs>
  <path class="cls-1" d="M13.56.1C5.71-.89-.89,5.71.1,13.56c.67,5.35,4.99,9.67,10.34,10.34,7.85.99,14.45-5.61,13.46-13.46C23.23,5.09,18.91.77,13.56.1ZM13.71,21.98c-6.93,1.14-12.84-4.77-11.7-11.7C2.7,6.09,6.09,2.7,10.29,2.02c6.93-1.14,12.84,4.77,11.7,11.7-.69,4.2-4.07,7.58-8.27,8.27Z"/>
  <path class="cls-1" d="M15.33,18c.27,0,2.67-1.77,2.67-2s-2.68-1.92-2.92-1.92-1.01.93-1.22,1.04c-.21.1-1.52.07-2.99-1.4-1.46-1.46-1.96-3.15-1.96-3.41s1.22-1.08,1.25-1.27-1.61-3.04-1.87-3.04-2.29,2.46-2.29,2.67.19,2.84,3.53,6.18,5.54,3.15,5.81,3.15Z"/>
</svg>