<?xml version="1.0" encoding="UTF-8"?>
<svg fill="#d3bb73" id="Warstwa_1" data-name="Warstwa 1" xmlns="http://www.w3.org/2000/svg" viewBox="0 0 448 512">
  <path d="M448,384c-28.02,0-31.26-32-74.5-32s-46.83,32-74.75,32-31.45-32-74.75-32-47.22,32-74.5,32-31.2-32-74.75-32S28.1,384,0,384v-80c0-26.5,21.5-48,48-48h16V112h64v144h64V112h64v144h64V112h64v144h16c26.5,0,48,21.5,48,48v80Zm0,128H0v-96c43.36,0,46.77-32,74.75-32s31.25,32,74.75,32,47.22-32,74.5-32,31.2,32,74.75,32,46.77-32,74.75-32,31.25,32,74.5,32v96ZM96,96c-17.75,0-32-14.25-32-32,0-31,32-23,32-64,12,0,32,29.5,32,56s-14.25,40-32,40Zm128,0c-17.75,0-32-14.25-32-32,0-31,32-23,32-64,12,0,32,29.5,32,56s-14.25,40-32,40Zm128,0c-17.75,0-32-14.25-32-32,0-31,32-23,32-64,12,0,32,29.5,32,56s-14.25,40-32,40Z"/>
</svg>