<?xml version="1.0" encoding="UTF-8"?>
<svg id="Warstwa_1" data-name="Warstwa 1" xmlns="http://www.w3.org/2000/svg" viewBox="0 0 275.2 53.23">
  <defs>
    <style>
      .cls-1 {
        fill: #d3bb74;
      }
    </style>
  </defs>
  <path class="cls-1" d="M55.9,52.67c-.63.08-1.63.37-2.7.37-.05-.76,0-2.46-.03-2.97-.03-.51-.05-.95-.08-1.33-.03-.38-.05-.72-.08-1.03-.03-.3-.06-.63-.11-.99-.05-.56-.11-1.27-.19-2.13-.08-.86-.18-1.98-.3-3.35-.13-1.37-.3-3.08-.53-5.14s-.52-4.58-.88-7.57c-.1-1.37-.25-2.82-.46-4.34-.15-1.32-.32-2.75-.49-4.3-.18-1.55-.39-3.13-.65-4.76-.91,2.03-1.74,3.88-2.47,5.56-.74,1.67-1.38,3.1-1.94,4.26-.61,1.42-1.14,2.69-1.6,3.81-.71,1.67-1.55,3.71-2.51,6.09-.86,2.03-1.94,4.56-3.24,7.57-1.29,3.02-2.85,6.59-4.68,10.7h-2.06c-.86-1.78-1.87-3.91-3.01-6.39-1.14-2.49-2.31-4.97-3.5-7.46-1.19-2.49-2.3-4.81-3.31-6.97-1.02-2.16-1.83-3.82-2.44-4.99-.56-1.07-1.17-2.26-1.83-3.58-.56-1.12-1.23-2.42-2.02-3.92-.79-1.5-1.61-3.13-2.47-4.91-.51,3.5-.89,6.29-1.14,8.37-.15,1.17-.28,2.21-.38,3.12-.25,1.73-.47,3.58-.65,5.56-.18,1.98-.34,3.93-.49,5.86s-.3,3.76-.46,5.48c-.15,1.73-.28,3.2-.38,4.42l-.26,5.33c-.71-.1-1.32-.27-1.77-.32-.46-.05-.8-.13-1.11-.13h-.95c-.86,0-1.19.06-1.77.11s-1.59.34-2.96.34v-2.38c.1,0,.13-.06.27-.1.1-.03.36-.04.47-.04,1.78,0,2.7-1.7,3-3.42.1-.66.24-1.84.42-3.54s.35-3.6.53-5.71c.18-2.11.37-4.24.57-6.39.2-2.16.41-4.02.61-5.6.25-3.2.54-6.44.88-9.74.33-3.3.62-6.85.88-10.66v-.15c0-.81-.22-1.46-.65-1.94-.43-.48-1.1-.72-2.02-.72h-.69V.29c1.32,0,2.38.04,3.2.11.81.08,1.67.11,2.59.11.35,0,.79-.02,1.29-.08.41-.05.88-.09,1.41-.11.53-.02,1.13-.09,1.79-.19.25.61.63,1.48,1.14,2.63.51,1.14,1.08,2.4,1.71,3.77.63,1.37,1.31,2.82,2.02,4.34.71,1.52,1.38,2.98,2.02,4.38.63,1.4,1.22,2.65,1.75,3.77s.95,1.98,1.26,2.59l8.68,17.89c1.01-2.08,1.93-4.01,2.74-5.79s1.52-3.35,2.13-4.72c.71-1.57,1.37-3.05,1.98-4.42.35-.76.82-1.78,1.41-3.05.58-1.27,1.2-2.66,1.86-4.19.66-1.52,1.36-3.11,2.09-4.76s1.41-3.25,2.02-4.8c.61-1.55,1.15-2.97,1.64-4.26.48-1.29.82-2.35,1.03-3.16.71.1,1.32.18,1.83.23.51.05.89.08,1.14.08h.53s.1-.02.15-.08c.91,0,1.78-.04,2.59-.11.81-.08,1.88-.11,3.2-.11v2.51h-.76c-1.02,0-1.66.24-1.94.72-.28.48-.44,1.08-.49,1.79v.23c0,.56.08,1.65.23,3.27.15,1.62.35,3.58.61,5.86.25,2.44.51,4.86.76,7.27s.46,4.33.61,5.75c.15,1.37.34,2.94.57,4.72.23,1.78.46,3.55.68,5.33.23,1.78.46,3.48.69,5.1s.44,3,.65,4.11c.2,1.73,1.11,3.91,2.68,3.91.35,0,.61.02.82-.03v2.14c-.91,0-1.85-.26-2.78-.42s-3.53-.15-3.53-.15c-1.33-.04-1.68.12-2.34.2h-.03Z"/>
  <path class="cls-1" d="M134.1.19c-.74.03-3.63.07-4.19.04s-.73-.1-1.44-.21c-1.17,4.25-2.89,9.63-4.48,13.7-1.6,4.07-3.19,8.12-4.76,12.16-.46,1.28-.96,2.68-1.52,4.22-.51,1.33-1.1,2.86-1.79,4.6-.55,1.4-2.87,7.08-4.18,10.27,0-.02-.02-.04-.03-.06-.58-1.27-1.29-2.85-2.13-4.76-.84-1.9-1.79-4.06-2.85-6.47-1.07-2.41-2.18-4.99-3.35-7.73-1.17-2.84-2.27-5.45-3.31-7.84-1.04-2.38-2.23-5.14-3.58-8.26-1.11-2.57-2.25-5.27-3.41-8.06.19-.49.34-.85.23-.69-.04.07-.14.28-.27.61-.23-.57-.47-1.13-.71-1.71h-2.36c-1.37,3.6-2.68,7.03-3.92,10.28-1.24,3.25-2.35,6.12-3.31,8.6-1.12,2.89-2.13,5.61-3.05,8.15-1.02,2.74-2.01,5.37-2.97,7.88-.96,2.51-1.83,4.75-2.59,6.7-.76,1.95-1.4,3.55-1.9,4.8-.51,1.24-.79,1.94-.84,2.09-.3.56-.7,1.09-1.18,1.6s-1.28.76-2.4.76h-.53v2.28c.36,0,.93-.03,1.71-.08.79-.05,1.53-.08,2.25-.08h1.29c.15,0,.42.03.8.08.38.05.93.1,1.64.15,1.88-5.02,3.35-9.02,4.42-11.99s1.78-4.96,2.13-5.98h17.66c.46,1.07,1.29,3.11,2.51,6.13s2.82,6.97,4.8,11.84c.4-.05,7.55-.15,7.55-.15,0,0,2.12-5.65,3.93-10.38,1.29-3.38,2.37-6.14,3.24-8.29.96-2.51,1.78-4.58,2.44-6.21.46-1.18,1.07-2.76,1.83-4.76.76-1.99,1.57-4.09,2.44-6.29.86-2.2,1.71-4.3,2.55-6.29.84-1.99,1.56-3.58,2.17-4.76.25-.56.54-1.09.88-1.57.33-.49.9-1.74,1.81-1.74.15,0,.82.17,1.03.22l.04-2.98c-.86.05-1.55.14-2.28.16l-.02.02ZM83.51,30.91c.46-1.17,1.22-3.18,2.28-6.05,1.07-2.87,2.44-6.48,4.11-10.85,1.93,4.37,3.51,7.98,4.76,10.85,1.24,2.87,2.12,4.89,2.63,6.05h-13.78Z"/>
  <path class="cls-1" d="M142.91,52.5c.15-3.96.23-7.89.23-11.8V8.84c0-.79,0-1.52-.04-2.21s-.06-1.13-.11-1.33c-.2-.81-.21-1.9-.57-2.23s-.84-.26-1.54-.2c-.45.04-.76.14-.76.14l-.04-2.98c1.01,0,2.06.15,3,.2s1.79.11,2.75.11c.71,0,1.51-.06,2.27-.11.76-.05,1.64-.05,2.5-.2-.1,1.12-.27,4.69-.37,5.34,0,.46,0,.91-.04,1.37s-.04.89-.04,1.29c0,.91,0,1.83.04,2.74.02.91.04,1.8.04,2.66-.05,2.18-.08,4.37-.08,6.55v13.59c0,2.31.03,4.66.08,7.04,0,.51,0,1.13-.04,1.87-.03.74-.04,1.48-.04,2.25,0,.56,0,1.09.04,1.6.02.51.06.94.11,1.29.1.66.11,1.78.44,2.26s1.11.88,1.92.88c.41,0,.71-.1.91-.15v2.41c-1.17,0-2.3-.11-3.49-.18-1.19-.08-2.36-.07-3.58-.07-.56,0-1.23.05-1.83.07-.61.03-1.19.08-1.75.18v-.54.02Z"/>
  <path class="cls-1" d="M203,5.26c-.05.25-.09.89-.11,1.9-.03,1.02-.05,2.27-.08,3.77s-.04,3.19-.04,5.06v5.79c-.05,1.47-.08,3.6-.08,6.39v25.05h-2.59c-3.91-4.52-7.22-8.3-9.93-11.34-2.72-3.05-4.94-5.53-6.66-7.46-2.03-2.23-3.65-4.03-4.87-5.41-1.17-1.27-2.41-2.64-3.73-4.11-1.17-1.27-2.51-2.73-4.03-4.38-1.52-1.65-3.15-3.41-4.87-5.29-.15,6.95-.23,11.93-.23,14.92v4.57c-.05,1.47-.08,2.92-.08,4.34v8.56c0,1.4.05,3.94.15,5.41-.96-.1-1.62-.2-2.23-.25s-1.14-.08-1.92-.03c0,0-3.51.28-4.52.28v-2.5c.1.05.19.14.39.14.66,0,1.47-.07,2.08-.51.61-.43.82-2.09.88-2.65.05-.51.09-1.24.11-2.21.03-.96.05-2.03.08-3.2.03-1.17.05-2.4.08-3.69.03-1.29.04-2.52.04-3.69v-11.19c0-3.35,0-7.07-.04-11.15s-.04-8.21-.04-12.37h2.59c3.5,3.96,6.57,7.44,9.21,10.43,2.64,3,4.87,5.53,6.7,7.61,2.08,2.44,3.91,4.49,5.48,6.17,1.32,1.42,2.71,2.92,4.19,4.49,1.27,1.32,2.68,2.83,4.22,4.53,1.55,1.7,3.13,3.44,4.76,5.21.1-2.39.16-4.59.19-6.62s.06-3.81.11-5.33c.05-1.78.08-3.4.08-4.87,0-1.32.02-2.66.08-4.03,0-1.17,0-2.49.04-3.96.03-1.47.04-2.94.04-4.42,0-2.13-.03-4.03-.08-5.71-.05-1.67-.13-2.79-.23-3.35,1.12.1,1.93.17,2.44.19.51.03.86.04,1.07.04h1.07c.66,0,1.22-.02,1.67-.08.46-.05,1.22-.08,2.28-.08v2.51c-.2-.05-.39-.08-.57-.08h-.49c-1.07,0-1.74.29-2.02.88-.28.58-.47,1.15-.57,1.71h-.02Z"/>
  <path class="cls-1" d="M256.78,43.48c-.15.86-.23,1.73-.23,2.59,0,.81.08,1.62.23,2.44-3.65,1.83-6.94,3.07-9.86,3.73s-5.7.99-8.34.99c-4.16,0-7.96-.66-11.38-1.98-3.43-1.32-6.36-3.15-8.79-5.48-2.44-2.33-4.33-5.13-5.67-8.37-1.35-3.25-2.02-6.83-2.02-10.73,0-3.65.65-7.1,1.94-10.35,1.29-3.25,3.2-6.08,5.71-8.49,2.51-2.41,5.63-4.31,9.36-5.71C231.46.72,235.76.03,240.63.03c2.28,0,4.33.11,6.13.34,1.8.23,3.31.49,4.53.8,1.17.25,2.16.51,2.97.76s1.65.51,2.51.76c-.46,1.22-.69,2.54-.69,3.96,0,.71.04,1.4.11,2.06.08.66.16,1.35.27,2.06h-2.89c-.1-1.52-.61-2.73-1.52-3.62-.91-.89-2.04-1.55-3.39-1.98-1.35-.43-2.75-.7-4.23-.8-1.47-.1-2.82-.15-4.03-.15-2.79,0-5.41.43-7.84,1.29-2.44.86-4.54,2.16-6.32,3.88-1.78,1.73-3.19,3.88-4.23,6.47-1.04,2.59-1.56,5.61-1.56,9.06,0,4.31.62,7.94,1.86,10.89,1.24,2.94,2.8,5.33,4.68,7.16,1.88,1.83,3.92,3.13,6.13,3.92,2.21.79,4.28,1.18,6.2,1.18,1.12,0,2.49-.06,4.11-.19,1.62-.13,3.2-.43,4.72-.91s2.87-1.22,4.03-2.21c1.17-.99,1.85-2.37,2.06-4.15h3.12c-.25,1.07-.46,2.03-.61,2.89l.03-.02Z"/>
  <path class="cls-1" d="M264.55,52.5c.15-3.96.23-7.89.23-11.8V8.84c0-.79-.01-1.52-.04-2.21s-.06-1.13-.11-1.33c-.2-.81-.52-1.33-.95-1.56-.43-.23-.85-.34-1.26-.34-.1,0-.18.01-.23.04-.05.03-.13.04-.23.04h-.23V.89c1.01,0,1.99.03,2.93.08s1.89.08,2.85.08c.71,0,1.45-.02,2.21-.08.76-.05,1.57-.15,2.44-.3-.1,1.12-.15,2.02-.15,2.7s-.05,1.36-.15,2.02c0,.46-.01.91-.04,1.37s-.04.89-.04,1.29c0,.91.01,1.83.04,2.74.02.91.04,1.8.04,2.66-.05,2.18-.08,4.37-.08,6.55v13.59c0,2.31.03,4.66.08,7.04,0,.51-.01,1.13-.04,1.87-.03.74-.04,1.48-.04,2.25,0,.56.01,1.09.04,1.6.02.51.06.94.11,1.29.1.66.32,1.23.65,1.71s.9.72,1.71.72c.41,0,.71-.02.91-.08v2.59c-1.17,0-2.35-.04-3.54-.11-1.19-.08-2.4-.11-3.62-.11-.56,0-1.14,0-1.75.04-.61.03-1.19.09-1.75.19v-.08h.01Z"/>
</svg>