<?xml version="1.0" encoding="UTF-8"?>
<svg id="Warstwa_2" data-name="Warstwa 2" xmlns="http://www.w3.org/2000/svg" viewBox="0 0 1500 1500">
  <defs>
    <style>
      .cls-1 {
        fill: #fff;
      }
    </style>
  </defs>
  <g id="Warstwa_1-2" data-name="Warstwa 1">
    <g>
      <rect class="cls-1" width="1500" height="1500"/>
      <g>
        <g>
          <path d="M314.07,625.03c28.76,0,55.31,9.76,76.44,26.17l5.87-2.91c-22.49-18.26-51.14-29.2-82.31-29.2s-59.81,10.93-82.31,29.2l5.87,2.91c21.13-16.41,47.68-26.17,76.44-26.17Z"/>
          <path d="M394.86,845.24c-21.78,18.54-50.01,29.73-80.79,29.73s-59.02-11.19-80.81-29.73l-5.53,3.04c23.05,20.3,53.27,32.62,86.34,32.62s63.29-12.31,86.34-32.62l-5.55-3.04Z"/>
          <path d="M189.11,750c0-27.95,9.23-53.79,24.81-74.62l-3.66-5c-16.98,22.06-27.08,49.69-27.08,79.62s9.86,56.91,26.51,78.85l4.01-4.51c-15.44-20.77-24.59-46.51-24.59-74.34Z"/>
          <path d="M414.23,675.38c15.58,20.83,24.81,46.67,24.81,74.62s-9.15,53.57-24.59,74.34l4.01,4.51c16.64-21.94,26.51-49.26,26.51-78.85s-10.1-57.56-27.08-79.62l-3.66,5Z"/>
          <polygon points="399.33 699.27 372.46 736.37 314.07 817.02 255.68 736.37 228.82 699.27 228.82 825.17 213.2 842.73 240.34 827.82 240.34 733.89 255.68 754.88 314.05 834.8 314.05 834.84 314.07 834.82 314.09 834.84 314.09 834.8 372.46 754.88 387.8 733.89 387.8 827.82 414.94 842.75 399.33 825.17 399.33 699.27"/>
          <polygon points="314.05 792.4 314.07 792.38 314.09 792.4 314.09 792.36 417.26 651.13 394.96 662.25 314.07 774.57 233.19 662.25 210.89 651.13 314.05 792.36 314.05 792.4"/>
          <polygon points="292.51 719.78 295.47 717.96 295.47 666.68 292.51 664.86 289.54 666.68 289.54 716.92 289.54 716.92 289.54 716.92 289.54 717.96 292.51 719.78"/>
          <polygon points="332.68 667.9 332.68 716.75 332.68 717.95 335.65 719.77 338.61 717.95 338.61 716.75 338.61 667.9 338.61 666.69 335.65 664.87 332.68 666.69 332.68 667.9"/>
          <polygon points="311.11 653.07 311.11 654.27 311.11 730.37 311.11 731.57 314.07 733.39 317.04 731.57 317.04 730.37 317.04 654.27 317.04 653.07 314.07 651.25 311.11 653.07"/>
        </g>
        <polygon points="518.08 714.44 518.08 785.97 526.22 785.97 526.22 734.99 552.87 763.68 579.94 734.99 579.94 785.97 588.08 785.97 588.08 714.44 552.98 751.68 518.08 714.44"/>
        <path d="M667.43,785.97h8.95l8.24-18.01h31.74l8.34,18.01h9.05l-33.27-71.93-33.07,71.93ZM688.49,759.82l12-26.35,12.21,26.35h-24.21Z"/>
        <polygon points="828.89 767.14 804.78 714.85 795.82 714.85 828.89 786.68 862.06 714.85 853.1 714.85 828.89 767.14"/>
        <rect x="941.41" y="714.54" width="8.14" height="71.42"/>
        <polygon points="1079.37 765.52 1030.94 714.03 1030.94 785.86 1039.08 785.86 1039.08 734.59 1087.51 785.97 1087.51 714.65 1079.37 714.65 1079.37 765.52"/>
        <path d="M1204.1,721.67c6.51,0,13.33,2.54,19.33,8.55l5.9-5.9c-7.12-7.12-16.48-10.68-25.84-10.68-20.35,0-36.63,16.28-36.63,36.63s16.48,36.63,36.63,36.63c9.36,0,18.72-3.66,25.84-10.78l-5.9-5.9c-5.49,5.49-12.72,8.34-19.94,8.34-14.85,0-28.59-12.51-28.59-27.67s13.94-29.2,29.2-29.2Z"/>
        <rect x="1308.68" y="714.54" width="8.14" height="71.42"/>
      </g>
    </g>
  </g>
</svg>