<?xml version="1.0" encoding="UTF-8"?>
<svg id="Warstwa_1" data-name="Warstwa 1" xmlns="http://www.w3.org/2000/svg" viewBox="0 0 274.66 78.09">
  <defs>
    <style>
      .cls-1 {
        fill: #d3bb74;
      }
    </style>
  </defs>
  <path class="cls-1" d="M55.9,52.54c-.63.08-1.63.37-2.7.37-.05-.76,0-2.46-.03-2.97-.03-.51-.05-.95-.08-1.33-.03-.38-.05-.72-.08-1.03-.03-.3-.06-.63-.11-.99-.05-.56-.11-1.27-.19-2.13-.08-.86-.18-1.98-.3-3.35-.13-1.37-.3-3.08-.53-5.14-.23-2.06-.52-4.58-.88-7.57-.1-1.37-.25-2.82-.46-4.34-.15-1.32-.32-2.75-.49-4.3-.18-1.55-.39-3.13-.65-4.76-.91,2.03-1.74,3.88-2.47,5.56-.74,1.67-1.38,3.1-1.94,4.26-.61,1.42-1.14,2.69-1.6,3.81-.71,1.67-1.55,3.71-2.51,6.09-.86,2.03-1.94,4.56-3.24,7.57-1.29,3.02-2.85,6.59-4.68,10.7h-2.06c-.86-1.78-1.87-3.91-3.01-6.39-1.14-2.49-2.31-4.97-3.5-7.46-1.19-2.49-2.3-4.81-3.31-6.97-1.02-2.16-1.83-3.82-2.44-4.99-.56-1.07-1.17-2.26-1.83-3.58-.56-1.12-1.23-2.42-2.02-3.92-.79-1.5-1.61-3.13-2.47-4.91-.51,3.5-.89,6.29-1.14,8.37-.15,1.17-.28,2.21-.38,3.12-.25,1.73-.47,3.58-.65,5.56-.18,1.98-.34,3.93-.49,5.86-.15,1.93-.3,3.76-.46,5.48-.15,1.73-.28,3.2-.38,4.42l-.26,5.33c-.71-.1-1.32-.27-1.77-.32-.46-.05-.8-.13-1.11-.13h-.95c-.86,0-1.19.06-1.77.11-.58.05-1.59.34-2.96.34v-2.38c.1,0,.13-.06.27-.1.1-.03.36-.04.47-.04,1.78,0,2.7-1.7,3-3.42.1-.66.24-1.84.42-3.54.18-1.7.35-3.6.53-5.71.18-2.11.37-4.24.57-6.39.2-2.16.41-4.02.61-5.6.25-3.2.54-6.44.88-9.74.33-3.3.62-6.85.88-10.66v-.15c0-.81-.22-1.46-.65-1.94-.43-.48-1.1-.72-2.02-.72h-.69V.15c1.32,0,2.38.04,3.2.11.81.08,1.67.11,2.59.11.35,0,.79-.02,1.29-.08.41-.05.88-.09,1.41-.11.53-.02,1.13-.09,1.79-.19.25.61.63,1.48,1.14,2.63.51,1.14,1.08,2.4,1.71,3.77.63,1.37,1.31,2.82,2.02,4.34.71,1.52,1.38,2.98,2.02,4.38.63,1.4,1.22,2.65,1.75,3.77.53,1.12.95,1.98,1.26,2.59l8.68,17.89c1.01-2.08,1.93-4.01,2.74-5.79.81-1.78,1.52-3.35,2.13-4.72.71-1.57,1.37-3.05,1.98-4.42.35-.76.82-1.78,1.41-3.05.58-1.27,1.2-2.66,1.86-4.19.66-1.52,1.36-3.11,2.09-4.76.73-1.65,1.41-3.25,2.02-4.8.61-1.55,1.15-2.97,1.64-4.26.48-1.29.82-2.35,1.03-3.16.71.1,1.32.18,1.83.23.51.05.89.08,1.14.08h.53c.05,0,.1-.02.15-.08.91,0,1.78-.04,2.59-.11.81-.08,1.88-.11,3.2-.11v2.51h-.76c-1.02,0-1.66.24-1.94.72-.28.48-.44,1.08-.49,1.79v.23c0,.56.08,1.65.23,3.27.15,1.62.35,3.58.61,5.86.25,2.44.51,4.86.76,7.27.25,2.41.46,4.33.61,5.75.15,1.37.34,2.94.57,4.72.23,1.78.46,3.55.68,5.33.23,1.78.46,3.48.69,5.1.23,1.62.44,3,.65,4.11.2,1.73,1.11,3.91,2.68,3.91.35,0,.61.02.82-.03v2.14c-.91,0-1.85-.26-2.78-.42s-3.53-.15-3.53-.15c-1.33-.04-1.68.12-2.34.2Z"/>
</svg>