<?xml version="1.0" encoding="UTF-8"?>
<svg id="Warstwa_1" data-name="Warstwa 1" xmlns="http://www.w3.org/2000/svg" viewBox="0 0 275.2 77.92">
  <defs>
    <style>
      .cls-1 {
        fill: #fff;
        stroke: #1d1d1b;
        stroke-miterlimit: 10;
      }

      .cls-2 {
        fill: #1d1d1b;
      }
    </style>
  </defs>
  <path class="cls-2" d="M55.9,52.67c-.63.08-1.63.37-2.7.37-.05-.76,0-2.46-.03-2.97-.03-.51-.05-.95-.08-1.33-.03-.38-.05-.72-.08-1.03-.03-.3-.06-.63-.11-.99-.05-.56-.11-1.27-.19-2.13-.08-.86-.18-1.98-.3-3.35-.13-1.37-.3-3.08-.53-5.14s-.52-4.58-.88-7.57c-.1-1.37-.25-2.82-.46-4.34-.15-1.32-.32-2.75-.49-4.3-.18-1.55-.39-3.13-.65-4.76-.91,2.03-1.74,3.88-2.47,5.56-.74,1.67-1.38,3.1-1.94,4.26-.61,1.42-1.14,2.69-1.6,3.81-.71,1.67-1.55,3.71-2.51,6.09-.86,2.03-1.94,4.56-3.24,7.57-1.29,3.02-2.85,6.59-4.68,10.7h-2.06c-.86-1.78-1.87-3.91-3.01-6.39-1.14-2.49-2.31-4.97-3.5-7.46-1.19-2.49-2.3-4.81-3.31-6.97-1.02-2.16-1.83-3.82-2.44-4.99-.56-1.07-1.17-2.26-1.83-3.58-.56-1.12-1.23-2.42-2.02-3.92-.79-1.5-1.61-3.13-2.47-4.91-.51,3.5-.89,6.29-1.14,8.37-.15,1.17-.28,2.21-.38,3.12-.25,1.73-.47,3.58-.65,5.56-.18,1.98-.34,3.93-.49,5.86s-.3,3.76-.46,5.48c-.15,1.73-.28,3.2-.38,4.42l-.26,5.33c-.71-.1-1.32-.27-1.77-.32-.46-.05-.8-.13-1.11-.13h-.95c-.86,0-1.19.06-1.77.11s-1.59.34-2.96.34v-2.38c.1,0,.13-.06.27-.1.1-.03.36-.04.47-.04,1.78,0,2.7-1.7,3-3.42.1-.66.24-1.84.42-3.54s.35-3.6.53-5.71.37-4.24.57-6.39c.2-2.16.41-4.02.61-5.6.25-3.2.54-6.44.88-9.74.33-3.3.62-6.85.88-10.66v-.15c0-.81-.22-1.46-.65-1.94-.43-.48-1.1-.72-2.02-.72h-.69V.29c1.32,0,2.38.04,3.2.11.81.08,1.67.11,2.59.11.35,0,.79-.02,1.29-.08.41-.05.88-.09,1.41-.11s1.13-.09,1.79-.19c.25.61.63,1.48,1.14,2.63.51,1.14,1.08,2.4,1.71,3.77s1.31,2.82,2.02,4.34c.71,1.52,1.38,2.98,2.02,4.38.63,1.4,1.22,2.65,1.75,3.77s.95,1.98,1.26,2.59l8.68,17.89c1.01-2.08,1.93-4.01,2.74-5.79s1.52-3.35,2.13-4.72c.71-1.57,1.37-3.05,1.98-4.42.35-.76.82-1.78,1.41-3.05.58-1.27,1.2-2.66,1.86-4.19.66-1.52,1.36-3.11,2.09-4.76s1.41-3.25,2.02-4.8,1.15-2.97,1.64-4.26c.48-1.29.82-2.35,1.03-3.16.71.1,1.32.18,1.83.23.51.05.89.08,1.14.08h.53s.1-.02.15-.08c.91,0,1.78-.04,2.59-.11.81-.08,1.88-.11,3.2-.11v2.51h-.76c-1.02,0-1.66.24-1.94.72s-.44,1.08-.49,1.79v.23c0,.56.08,1.65.23,3.27.15,1.62.35,3.58.61,5.86.25,2.44.51,4.86.76,7.27s.46,4.33.61,5.75c.15,1.37.34,2.94.57,4.72s.46,3.55.68,5.33c.23,1.78.46,3.48.69,5.1s.44,3,.65,4.11c.2,1.73,1.11,3.91,2.68,3.91.35,0,.61.02.82-.03v2.14c-.91,0-1.85-.26-2.78-.42s-3.53-.15-3.53-.15c-1.33-.04-1.68.12-2.34.2,0,0-.03,0-.03,0Z"/>
  <path class="cls-2" d="M134.1.19c-.74.03-3.63.07-4.19.04s-.73-.1-1.44-.21c-1.17,4.25-2.89,9.63-4.48,13.7-1.6,4.07-3.19,8.12-4.76,12.16-.46,1.28-.96,2.68-1.52,4.22-.51,1.33-1.1,2.86-1.79,4.6-.55,1.4-2.87,7.08-4.18,10.27,0-.02-.02-.04-.03-.06-.58-1.27-1.29-2.85-2.13-4.76-.84-1.9-1.79-4.06-2.85-6.47-1.07-2.41-2.18-4.99-3.35-7.73-1.17-2.84-2.27-5.45-3.31-7.84-1.04-2.38-2.23-5.14-3.58-8.26-1.11-2.57-2.25-5.27-3.41-8.06.19-.49.34-.85.23-.69-.04.07-.14.28-.27.61-.23-.57-.47-1.13-.71-1.71h-2.36c-1.37,3.6-2.68,7.03-3.92,10.28-1.24,3.25-2.35,6.12-3.31,8.6-1.12,2.89-2.13,5.61-3.05,8.15-1.02,2.74-2.01,5.37-2.97,7.88s-1.83,4.75-2.59,6.7c-.76,1.95-1.4,3.55-1.9,4.8-.51,1.24-.79,1.94-.84,2.09-.3.56-.7,1.09-1.18,1.6s-1.28.76-2.4.76h-.53v2.28c.36,0,.93-.03,1.71-.08.79-.05,1.53-.08,2.25-.08h1.29c.15,0,.42.03.8.08.38.05.93.1,1.64.15,1.88-5.02,3.35-9.02,4.42-11.99s1.78-4.96,2.13-5.98h17.66c.46,1.07,1.29,3.11,2.51,6.13s2.82,6.97,4.8,11.84c.4-.05,7.55-.15,7.55-.15,0,0,2.12-5.65,3.93-10.38,1.29-3.38,2.37-6.14,3.24-8.29.96-2.51,1.78-4.58,2.44-6.21.46-1.18,1.07-2.76,1.83-4.76.76-1.99,1.57-4.09,2.44-6.29.86-2.2,1.71-4.3,2.55-6.29s1.56-3.58,2.17-4.76c.25-.56.54-1.09.88-1.57.33-.49.9-1.74,1.81-1.74.15,0,.82.17,1.03.22l.04-2.98c-.86.05-1.55.14-2.28.16,0,0-.02.02-.02.02ZM83.51,30.91c.46-1.17,1.22-3.18,2.28-6.05,1.07-2.87,2.44-6.48,4.11-10.85,1.93,4.37,3.51,7.98,4.76,10.85,1.24,2.87,2.12,4.89,2.63,6.05h-13.78Z"/>
  <path class="cls-2" d="M142.91,52.5c.15-3.96.23-7.89.23-11.8V8.84c0-.79,0-1.52-.04-2.21s-.06-1.13-.11-1.33c-.2-.81-.21-1.9-.57-2.23s-.84-.26-1.54-.2c-.45.04-.76.14-.76.14l-.04-2.98c1.01,0,2.06.15,3,.2s1.79.11,2.75.11c.71,0,1.51-.06,2.27-.11.76-.05,1.64-.05,2.5-.2-.1,1.12-.27,4.69-.37,5.34,0,.46,0,.91-.04,1.37s-.04.89-.04,1.29c0,.91,0,1.83.04,2.74.02.91.04,1.8.04,2.66-.05,2.18-.08,4.37-.08,6.55v13.59c0,2.31.03,4.66.08,7.04,0,.51,0,1.13-.04,1.87-.03.74-.04,1.48-.04,2.25,0,.56,0,1.09.04,1.6.02.51.06.94.11,1.29.1.66.11,1.78.44,2.26s1.11.88,1.92.88c.41,0,.71-.1.91-.15v2.41c-1.17,0-2.3-.11-3.49-.18-1.19-.08-2.36-.07-3.58-.07-.56,0-1.23.05-1.83.07-.61.03-1.19.08-1.75.18v-.54.02h-.01Z"/>
  <path class="cls-2" d="M203,5.26c-.05.25-.09.89-.11,1.9-.03,1.02-.05,2.27-.08,3.77s-.04,3.19-.04,5.06v5.79c-.05,1.47-.08,3.6-.08,6.39v25.05h-2.59c-3.91-4.52-7.22-8.3-9.93-11.34-2.72-3.05-4.94-5.53-6.66-7.46-2.03-2.23-3.65-4.03-4.87-5.41-1.17-1.27-2.41-2.64-3.73-4.11-1.17-1.27-2.51-2.73-4.03-4.38-1.52-1.65-3.15-3.41-4.87-5.29-.15,6.95-.23,11.93-.23,14.92v4.57c-.05,1.47-.08,2.92-.08,4.34v8.56c0,1.4.05,3.94.15,5.41-.96-.1-1.62-.2-2.23-.25s-1.14-.08-1.92-.03c0,0-3.51.28-4.52.28v-2.5c.1.05.19.14.39.14.66,0,1.47-.07,2.08-.51.61-.43.82-2.09.88-2.65.05-.51.09-1.24.11-2.21.03-.96.05-2.03.08-3.2.03-1.17.05-2.4.08-3.69.03-1.29.04-2.52.04-3.69v-11.19c0-3.35,0-7.07-.04-11.15s-.04-8.21-.04-12.37h2.59c3.5,3.96,6.57,7.44,9.21,10.43,2.64,3,4.87,5.53,6.7,7.61,2.08,2.44,3.91,4.49,5.48,6.17,1.32,1.42,2.71,2.92,4.19,4.49,1.27,1.32,2.68,2.83,4.22,4.53,1.55,1.7,3.13,3.44,4.76,5.21.1-2.39.16-4.59.19-6.62s.06-3.81.11-5.33c.05-1.78.08-3.4.08-4.87,0-1.32.02-2.66.08-4.03,0-1.17,0-2.49.04-3.96.03-1.47.04-2.94.04-4.42,0-2.13-.03-4.03-.08-5.71-.05-1.67-.13-2.79-.23-3.35,1.12.1,1.93.17,2.44.19.51.03.86.04,1.07.04h1.07c.66,0,1.22-.02,1.67-.08.46-.05,1.22-.08,2.28-.08v2.51c-.2-.05-.39-.08-.57-.08h-.49c-1.07,0-1.74.29-2.02.88-.28.58-.47,1.15-.57,1.71h-.02Z"/>
  <path class="cls-2" d="M256.78,43.48c-.15.86-.23,1.73-.23,2.59,0,.81.08,1.62.23,2.44-3.65,1.83-6.94,3.07-9.86,3.73s-5.7.99-8.34.99c-4.16,0-7.96-.66-11.38-1.98-3.43-1.32-6.36-3.15-8.79-5.48-2.44-2.33-4.33-5.13-5.67-8.37-1.35-3.25-2.02-6.83-2.02-10.73,0-3.65.65-7.1,1.94-10.35,1.29-3.25,3.2-6.08,5.71-8.49,2.51-2.41,5.63-4.31,9.36-5.71C231.46.72,235.76.03,240.63.03c2.28,0,4.33.11,6.13.34s3.31.49,4.53.8c1.17.25,2.16.51,2.97.76s1.65.51,2.51.76c-.46,1.22-.69,2.54-.69,3.96,0,.71.04,1.4.11,2.06.08.66.16,1.35.27,2.06h-2.89c-.1-1.52-.61-2.73-1.52-3.62-.91-.89-2.04-1.55-3.39-1.98s-2.75-.7-4.23-.8c-1.47-.1-2.82-.15-4.03-.15-2.79,0-5.41.43-7.84,1.29-2.44.86-4.54,2.16-6.32,3.88-1.78,1.73-3.19,3.88-4.23,6.47s-1.56,5.61-1.56,9.06c0,4.31.62,7.94,1.86,10.89,1.24,2.94,2.8,5.33,4.68,7.16,1.88,1.83,3.92,3.13,6.13,3.92,2.21.79,4.28,1.18,6.2,1.18,1.12,0,2.49-.06,4.11-.19,1.62-.13,3.2-.43,4.72-.91s2.87-1.22,4.03-2.21c1.17-.99,1.85-2.37,2.06-4.15h3.12c-.25,1.07-.46,2.03-.61,2.89l.03-.02Z"/>
  <path class="cls-2" d="M264.55,52.5c.15-3.96.23-7.89.23-11.8V8.84c0-.79-.01-1.52-.04-2.21s-.06-1.13-.11-1.33c-.2-.81-.52-1.33-.95-1.56-.43-.23-.85-.34-1.26-.34-.1,0-.18,0-.23.04-.05.03-.13.04-.23.04h-.23V.89c1.01,0,1.99.03,2.93.08s1.89.08,2.85.08c.71,0,1.45-.02,2.21-.08.76-.05,1.57-.15,2.44-.3-.1,1.12-.15,2.02-.15,2.7s-.05,1.36-.15,2.02c0,.46-.01.91-.04,1.37s-.04.89-.04,1.29c0,.91.01,1.83.04,2.74.02.91.04,1.8.04,2.66-.05,2.18-.08,4.37-.08,6.55v13.59c0,2.31.03,4.66.08,7.04,0,.51-.01,1.13-.04,1.87-.03.74-.04,1.48-.04,2.25,0,.56.01,1.09.04,1.6.02.51.06.94.11,1.29.1.66.32,1.23.65,1.71s.9.72,1.71.72c.41,0,.71-.02.91-.08v2.59c-1.17,0-2.35-.04-3.54-.11-1.19-.08-2.4-.11-3.62-.11-.56,0-1.14,0-1.75.04-.61.03-1.19.09-1.75.19v-.08h.01Z"/>
  <path class="cls-2" d="M68.67,71.01c0-1.14.15-2.14.46-2.99s.73-1.56,1.26-2.13,1.14-1,1.83-1.28,1.41-.42,2.16-.42c1.14,0,2.04.26,2.71.77.67.51,1,1.28,1,2.31,0,.43-.1.81-.29,1.16-.19.35-.45.65-.77.91s-.68.46-1.07.61c-.4.15-.81.22-1.23.22-.27,0-.5-.02-.68-.07s-.34-.1-.48-.16c-.16-.08-.29-.16-.41-.26.33,0,.68-.06,1.06-.17.38-.12.72-.28,1.03-.51.31-.22.57-.49.77-.81s.3-.67.3-1.06c0-.81-.2-1.38-.61-1.71s-.93-.49-1.57-.49c-.5,0-.99.13-1.45.39s-.88.62-1.23,1.09c-.36.46-.64,1.02-.86,1.67-.21.65-.32,1.36-.32,2.13s.11,1.52.32,2.25.52,1.37.93,1.93.91,1.01,1.52,1.35c.61.34,1.32.51,2.13.51.66,0,1.2-.05,1.64-.16.43-.11.78-.23,1.04-.38.26-.14.46-.28.59-.42.14-.13.22-.23.26-.29l.06.03c-.21.48-.51.9-.9,1.25-.33.31-.77.59-1.32.84s-1.25.38-2.1.38c-1.08,0-1.99-.23-2.73-.7-.73-.46-1.33-1.03-1.78-1.7s-.78-1.37-.99-2.12c-.2-.74-.3-1.4-.3-1.96h.02Z"/>
  <path class="cls-2" d="M91.14,64.43c.14.04.27.06.39.07.13,0,.24.01.33.01h.46c.27,0,.46-.01.58-.04s.22-.04.32-.04h.17l-.03.26s-.07,0-.1-.01c-.03,0-.06-.01-.1-.01h-.09c-.12,0-.31.03-.59.1s-.52.3-.71.68c-.15.31-.4.84-.74,1.58-.34.74-.76,1.75-1.26,3.03-.29.72-.61,1.49-.96,2.32-.29.72-.62,1.55-1,2.49-.38.95-.77,1.96-1.17,3.05h-.06c-.33-.87-.66-1.7-.99-2.49-.33-.79-.62-1.5-.87-2.12-.31-.73-.59-1.42-.84-2.06-.52-1.33-1.01-2.49-1.45-3.48-.45-.99-.73-1.61-.84-1.89-.21-.44-.45-.76-.71-.94s-.47-.28-.62-.28h-.09s-.07,0-.09.01c-.02,0-.05.01-.09.01v-.26h.14c.14,0,.33.02.59.06.26.04.54.06.83.06h.26c.12.02.23.02.35,0,.1,0,.22,0,.36-.03.14-.02.31-.05.51-.09.27.7.53,1.35.77,1.96s.45,1.15.62,1.61c.21.54.41,1.03.58,1.48.19.45.4.93.61,1.45.19.45.42.96.68,1.55.26.59.54,1.21.83,1.87.21-.48.44-1,.68-1.54s.46-1.03.65-1.48c.21-.52.42-1.03.64-1.54.27-.66.53-1.3.78-1.94.21-.56.43-1.15.67-1.75.23-.61.42-1.16.58-1.67h.02,0Z"/>
  <path class="cls-2" d="M95.12,71.01c0-1.14.15-2.14.46-2.99s.73-1.56,1.26-2.13,1.14-1,1.83-1.28,1.41-.42,2.16-.42c1.14,0,2.04.26,2.71.77.67.51,1,1.28,1,2.31,0,.43-.1.81-.29,1.16-.19.35-.45.65-.77.91s-.68.46-1.07.61c-.4.15-.81.22-1.23.22-.27,0-.5-.02-.68-.07s-.34-.1-.48-.16c-.16-.08-.29-.16-.41-.26.33,0,.68-.06,1.06-.17.38-.12.72-.28,1.03-.51.31-.22.57-.49.77-.81s.3-.67.3-1.06c0-.81-.2-1.38-.61-1.71s-.93-.49-1.57-.49c-.5,0-.99.13-1.45.39s-.88.62-1.23,1.09c-.36.46-.64,1.02-.86,1.67-.21.65-.32,1.36-.32,2.13s.11,1.52.32,2.25.52,1.37.93,1.93.91,1.01,1.52,1.35c.61.34,1.32.51,2.13.51.66,0,1.2-.05,1.64-.16.43-.11.78-.23,1.04-.38.26-.14.46-.28.59-.42.14-.13.22-.23.26-.29l.06.03c-.21.48-.51.9-.9,1.25-.33.31-.77.59-1.32.84s-1.25.38-2.1.38c-1.08,0-1.99-.23-2.73-.7-.73-.46-1.33-1.03-1.78-1.7s-.78-1.37-.99-2.12c-.2-.74-.3-1.4-.3-1.96h.02Z"/>
  <path class="cls-2" d="M110.28,70.81c0,.41,0,.88.01,1.44,0,.55.01,1.09.01,1.61s0,.99.01,1.39c0,.41.01.65.01.73v.44c0,.06,0,.14.01.25,0,.11.02.29.04.54-.15-.02-.3-.04-.43-.06-.14-.02-.25-.03-.35-.03h-.67c-.31,0-.58.01-.81.04s-.4.04-.49.04h-.12v-.26s.11.03.2.03h.09c.19,0,.36-.09.51-.26.14-.17.24-.45.28-.84,0-.14,0-.38.01-.74,0-.36.02-.77.03-1.25,0-.47.02-.98.03-1.52,0-.54.01-1.05.01-1.54,0-.35,0-.78-.01-1.31,0-.52-.02-1.04-.03-1.55,0-.51-.02-.98-.03-1.39,0-.42-.01-.69-.01-.83-.04-.37-.13-.64-.28-.81-.14-.17-.31-.26-.51-.26h-.09s-.07,0-.1.01c-.03,0-.06.01-.1.01v-.26h.17c.12,0,.29.02.54.06.24.04.5.06.77.06h.29c.1.02.2.02.32,0,.1,0,.21,0,.35-.03.14-.02.28-.05.43-.09-.02.27-.03.45-.04.55-.01.1-.01.17-.01.22v.42c0,.1,0,.34-.01.74,0,.4-.01.86-.01,1.39s0,1.07-.01,1.62c0,.55-.01,1.03-.01,1.44h0ZM119.1,76.96c.08,0,.15,0,.2-.03v.26h-.14c-.1,0-.26-.01-.49-.04s-.49-.04-.78-.04h-.67c-.1,0-.22,0-.36.03-.14.02-.3.04-.45.06l.09-1.22c0-.08,0-.32.01-.73,0-.41.01-.87.01-1.39s0-1.06.01-1.61c0-.55.01-1.03.01-1.44,0-.44,0-.88-.01-1.32s-.01-.81-.01-1.12c0-1.16-.25-1.97-.74-2.44s-1.17-.7-2.04-.7c-.27,0-.54.03-.8.09s-.5.13-.73.22c-.22.09-.42.17-.59.26-.17.09-.3.15-.38.19l-.03-.03c.08-.1.21-.24.39-.44.18-.19.42-.39.71-.59s.63-.38,1.01-.52c.39-.14.83-.22,1.33-.22s.94.06,1.36.19c.43.13.8.33,1.12.62s.57.68.75,1.16.28,1.08.28,1.8v5.18c0,.4,0,.77.01,1.13,0,.36.02.68.03.97,0,.29.01.5.01.64.02.39.11.66.26.83.15.16.33.25.52.25h.11,0Z"/>
  <path class="cls-2" d="M129.36,76.14c-.14.33-.33.58-.59.77-.26.18-.53.32-.8.42-.33.1-.68.15-1.04.17h-.06c-.66,0-1.21-.13-1.67-.39-.45-.26-.82-.58-1.1-.97s-.48-.8-.61-1.25c-.13-.44-.19-.84-.19-1.19,0-.23,0-.61.01-1.13,0-.52.01-1.12.01-1.8,0-.54,0-1.1-.01-1.68,0-.58-.02-1.13-.03-1.64,0-.51-.02-.98-.03-1.39-.01-.42-.02-.75-.04-1h-2.09v-.03c.29-.1.58-.23.86-.41.28-.17.53-.35.74-.52.25-.21.5-.43.75-.64.29-.27.54-.53.75-.78.19-.21.38-.44.55-.68.17-.24.3-.47.38-.68h.03c-.04.41-.06.8-.07,1.17,0,.38-.02.71-.04,1-.02.35-.03.66-.03.93h3.54v.64h-3.57c0,.23,0,.49-.01.78,0,.29-.02.65-.03,1.09,0,.44-.01.97-.01,1.6v2.28c0,.27,0,.65.01,1.13,0,.48.02,1.02.04,1.6.02.58.11,1.07.28,1.46.16.4.38.71.64.94s.56.4.88.51c.33.11.67.16,1.01.16.21,0,.42-.02.61-.06.15-.04.32-.09.49-.15s.31-.14.41-.26h.03Z"/>
  <path class="cls-2" d="M151.16,77.02l-.91-1.4c-.85,1.25-1.94,1.87-3.29,1.87-1.13,0-2.13-.45-2.99-1.35s-1.29-1.99-1.29-3.29c0-1,.29-1.89.87-2.66.58-.77,1.38-1.31,2.4-1.61-.7-1.12-1.12-1.86-1.25-2.22-.14-.35-.21-.72-.21-1.1,0-.93.35-1.75,1.06-2.46.71-.7,1.56-1.05,2.55-1.05.32,0,.64.05.96.14s.64.24.96.44c.41-.21.66-.31.75-.31.16,0,.3.06.42.18s.18.26.18.43c0,.11-.03.22-.1.31s-.2.19-.4.3l-.92.5c-.29-.26-.59-.46-.9-.59s-.62-.19-.94-.19c-.65,0-1.22.24-1.71.72-.49.48-.73,1.02-.73,1.61s.42,1.6,1.27,2.95l3.29,5.23c.58-1.09,1.03-2.34,1.36-3.77h1.16c.28,0,.49.06.61.17s.18.25.18.42c0,.12-.04.24-.11.34s-.15.17-.25.21c-.09.04-.33.06-.69.06-.45,1.6-.97,2.83-1.56,3.71l.81,1.22h1.01c.28,0,.49.05.61.16s.18.25.18.43c0,.17-.06.31-.18.42s-.33.17-.61.17h-1.61.02ZM146.47,69.63c-.79.19-1.42.57-1.89,1.15s-.7,1.27-.7,2.07c0,.95.31,1.77.94,2.44.63.67,1.33,1.01,2.12,1.01,1.06,0,1.93-.59,2.62-1.78,0,0-3.09-4.89-3.09-4.89Z"/>
  <path class="cls-2" d="M175.71,77.16c.08,0,.15,0,.2-.03v.26h-.12c-.1,0-.27-.01-.51-.04-.24-.03-.51-.04-.8-.04h-.67c-.1,0-.21,0-.33.03-.13.02-.27.04-.42.06v-6.76c-.1.06-.19.12-.29.17-.1.06-.22.12-.38.17-.46.21-.98.38-1.54.49-.56.12-1.02.26-1.39.44-.5.27-.89.61-1.17,1.01-.28.41-.42.94-.42,1.6s.25,1.22.75,1.62c.5.41,1.12.61,1.86.61.17,0,.36,0,.55-.03.15-.02.33-.05.52-.09.19-.04.39-.11.58-.2-.08.12-.18.25-.32.41s-.32.29-.55.42-.52.23-.87.32c-.35.09-.75.13-1.22.13-.68,0-1.22-.11-1.64-.32s-.73-.47-.96-.78c-.22-.31-.37-.62-.45-.93s-.12-.57-.12-.78c0-.85.29-1.61.87-2.28s1.45-1.15,2.61-1.44c.75-.19,1.36-.4,1.83-.61s.83-.45,1.09-.71.44-.55.52-.87c.09-.32.13-.69.13-1.12,0-.29-.05-.58-.15-.87-.1-.29-.26-.55-.49-.78s-.54-.42-.91-.57c-.38-.14-.85-.22-1.41-.22-.7,0-1.28.11-1.74.33s-.78.38-.96.48l-.03-.03c.08-.1.2-.25.38-.45.17-.2.41-.41.71-.61s.67-.38,1.1-.54c.43-.15.94-.23,1.52-.23,2.4,0,3.6,1.2,3.6,3.6v6.48c0,.36.02.68.03.97v.64c.02.39.11.66.26.83.15.16.33.25.52.25h.23,0Z"/>
  <path class="cls-2" d="M181.33,71.01v5.86c0,.11.02.29.04.54-.16-.02-.3-.04-.44-.06s-.25-.03-.35-.03h-.67c-.31,0-.58.01-.81.04s-.4.04-.49.04h-.12v-.26s.11.03.2.03h.09c.19,0,.36-.09.51-.26.15-.17.24-.45.28-.84v-.74c0-.36.02-.77.03-1.25,0-.47.02-.98.03-1.52v-2.85c0-.52-.02-1.04-.03-1.55,0-.51-.02-.98-.03-1.39v-.83c-.04-.37-.13-.64-.28-.81s-.31-.26-.51-.26h-.09s-.07,0-.1.01c-.03,0-.06.01-.1.01v-.26h.17c.12,0,.29.02.54.06.24.04.5.06.77.06h.29c.1.02.2.02.32,0,.1,0,.21,0,.35-.03.14-.02.28-.05.44-.09-.02.27-.03.45-.04.55v5.83h0ZM182.11,66.43c.25-.5.55-.89.9-1.17.35-.28.69-.49,1.01-.62.37-.15.75-.24,1.16-.26.79,0,1.33.17,1.62.52s.44.71.44,1.07c0,.15-.02.32-.06.49-.04.16-.09.32-.14.49-.06.17-.15.35-.26.52-.12-.42-.32-.75-.62-.99-.3-.23-.61-.4-.94-.49-.37-.12-.77-.18-1.22-.2-.17,0-.37.03-.58.09-.17.04-.37.11-.59.2-.22.1-.45.22-.68.38l-.03-.03h-.01Z"/>
  <path class="cls-2" d="M195.92,76.35c-.14.33-.33.58-.59.77-.26.18-.53.32-.8.42-.33.1-.68.15-1.04.17h-.06c-.66,0-1.21-.13-1.67-.39s-.82-.58-1.1-.97-.48-.8-.61-1.25c-.13-.44-.19-.84-.19-1.19v-4.61c0-.58-.02-1.13-.03-1.64,0-.51-.02-.98-.03-1.39,0-.42-.02-.75-.04-1h-2.09v-.03c.29-.1.57-.23.86-.41.28-.17.53-.35.74-.52.25-.21.5-.43.75-.64.29-.27.54-.53.75-.78.19-.21.38-.44.55-.68s.3-.47.38-.68h.03c-.04.41-.06.8-.07,1.17,0,.38-.02.71-.04,1-.02.35-.03.66-.03.93h3.54v.64h-3.57v.78c0,.29-.02.65-.03,1.09v5.01c0,.48.02,1.02.04,1.6.02.58.11,1.07.28,1.46.16.4.38.71.64.94s.56.4.88.51c.33.11.67.16,1.01.16.21,0,.42-.02.61-.06.15-.04.32-.09.49-.15.17-.06.31-.14.41-.26h.03,0Z"/>
  <line class="cls-1" x1="220.72" y1="69.62" x2="275.09" y2="69.62"/>
  <line class="cls-1" x1="0" y1="69.62" x2="54.38" y2="69.62"/>
</svg>