<?xml version="1.0" encoding="UTF-8"?>
<svg id="Warstwa_1" data-name="Warstwa 1" xmlns="http://www.w3.org/2000/svg" viewBox="0 0 21.69 17.8">
  <defs>
    <style>
      .cls-1 {
        fill: #d3bb74;
      }
    </style>
  </defs>
  <path class="cls-1" d="M18.78,17.65c-.21.03-.55.12-.91.12-.02-.26,0-.83-.01-1,0-.17-.02-.32-.03-.45,0-.13-.02-.24-.03-.35,0-.1-.02-.21-.04-.33-.02-.19-.04-.43-.06-.72-.03-.29-.06-.66-.1-1.13-.04-.46-.1-1.04-.18-1.73-.08-.69-.18-1.54-.29-2.54-.03-.46-.09-.95-.15-1.46-.05-.44-.11-.92-.17-1.45-.06-.52-.13-1.05-.22-1.6-.31.68-.58,1.3-.83,1.87-.25.56-.46,1.04-.65,1.43-.2.48-.38.9-.54,1.28-.24.56-.52,1.24-.84,2.05-.29.68-.65,1.53-1.09,2.54-.43,1.01-.96,2.21-1.57,3.59h-.69c-.29-.6-.63-1.31-1.01-2.15-.38-.84-.78-1.67-1.18-2.51-.4-.84-.77-1.62-1.11-2.34-.34-.72-.61-1.28-.82-1.68-.19-.36-.39-.76-.61-1.2-.19-.37-.41-.81-.68-1.32-.26-.5-.54-1.05-.83-1.65-.17,1.18-.3,2.11-.38,2.81-.05.39-.09.74-.13,1.05-.09.58-.16,1.2-.22,1.87-.06.66-.12,1.32-.17,1.97-.05.65-.1,1.26-.15,1.84-.05.58-.09,1.07-.13,1.48l-.09,1.79c-.24-.03-.44-.09-.6-.11-.15-.02-.27-.04-.37-.04h-.32c-.29,0-.4.02-.59.04-.2.02-.54.11-1,.11v-.8s.04-.02.09-.03c.03,0,.12-.01.16-.01.6,0,.91-.57,1.01-1.15.03-.22.08-.62.14-1.19.06-.57.12-1.21.18-1.92.06-.71.12-1.42.19-2.15.07-.72.14-1.35.2-1.88.09-1.07.18-2.17.29-3.27.11-1.11.21-2.3.29-3.58v-.05c0-.27-.07-.49-.22-.65-.15-.16-.37-.24-.68-.24h-.23V.05c.44,0,.8.01,1.07.04.27.03.56.04.87.04.12,0,.26,0,.43-.03.14-.02.29-.03.47-.04.18,0,.38-.03.6-.06.09.2.21.5.38.88.17.38.36.81.58,1.27.21.46.44.95.68,1.46.24.51.46,1,.68,1.47.21.47.41.89.59,1.27.18.38.32.66.42.87l2.92,6.01c.34-.7.65-1.35.92-1.94.27-.6.51-1.13.72-1.59.24-.53.46-1.02.66-1.48.12-.26.28-.6.47-1.02.2-.43.4-.9.63-1.41.22-.51.46-1.04.7-1.6.25-.55.47-1.09.68-1.61.2-.52.39-1,.55-1.43.16-.43.28-.79.35-1.06.24.03.44.06.61.08.17.02.3.03.38.03h.18s.03,0,.05-.03c.31,0,.6-.01.87-.04.27-.03.63-.04,1.07-.04v.84h-.26c-.34,0-.56.08-.65.24-.09.16-.15.36-.17.6v.08c0,.19.03.55.08,1.1.05.55.12,1.2.2,1.97.09.82.17,1.63.26,2.44.09.81.15,1.45.2,1.93.05.46.12.99.19,1.59.08.6.15,1.19.23,1.79.08.6.15,1.17.23,1.71.08.55.15,1.01.22,1.38.07.58.37,1.31.9,1.31.12,0,.21,0,.27-.01v.72c-.31,0-.62-.09-.93-.14s-1.19-.05-1.19-.05c-.45-.01-.57.04-.79.07Z"/>
</svg>